<svg xmlns="http://www.w3.org/2000/svg" xmlns:xlink="http://www.w3.org/1999/xlink" width="300" height="100" viewBox="0 0 254 84.666"><defs><linearGradient id="e"><stop offset="0" stop-color="#ecff0e"/><stop offset="1" stop-color="#ff0027"/></linearGradient><linearGradient id="c"><stop offset="0" stop-color="#7600ff"/><stop offset="1" stop-color="#ff00fb"/></linearGradient><linearGradient id="d"><stop offset="0" stop-color="#0e51ff"/><stop offset="1" stop-color="#00ffc4"/></linearGradient><linearGradient id="b"><stop offset="0" stop-color="#f8ff00"/><stop offset="1" stop-color="#ff0074"/></linearGradient><linearGradient id="a"><stop offset="0" stop-color="#ffef0e"/><stop offset="1" stop-color="#ff001b"/></linearGradient><linearGradient xlink:href="#a" id="n" x1="76.39" y1="194.495" x2="66.727" y2="216.418" gradientUnits="userSpaceOnUse"/><linearGradient xlink:href="#b" id="m" x1="52.446" y1="191.85" x2="57.674" y2="213.772" gradientUnits="userSpaceOnUse"/><linearGradient xlink:href="#c" id="q" gradientUnits="userSpaceOnUse" x1="52.446" y1="191.85" x2="57.674" y2="213.772" gradientTransform="translate(98.152 -.59)"/><linearGradient xlink:href="#d" id="r" gradientUnits="userSpaceOnUse" x1="76.39" y1="194.495" x2="66.727" y2="216.418" gradientTransform="translate(98.152 -.59)"/><linearGradient xlink:href="#b" id="f" x1="239.25" y1="171.387" x2="278.331" y2="171.387" gradientUnits="userSpaceOnUse"/><linearGradient xlink:href="#e" id="o" x1="249.174" y1="168.94" x2="275.71" y2="168.94" gradientUnits="userSpaceOnUse"/><linearGradient xlink:href="#a" id="p" x1="239.25" y1="171.388" x2="275.997" y2="171.388" gradientUnits="userSpaceOnUse"/><linearGradient xlink:href="#d" id="l" gradientUnits="userSpaceOnUse" x1="260.405" y1="215.757" x2="260.402" y2="188.542"/><linearGradient xlink:href="#c" id="i" x1="123.12" y1="197.929" x2="139.057" y2="197.929" gradientUnits="userSpaceOnUse"/><linearGradient xlink:href="#d" id="h" x1="139.057" y1="201.177" x2="185.145" y2="201.177" gradientUnits="userSpaceOnUse"/><linearGradient xlink:href="#c" id="g" x1="183.523" y1="201.557" x2="236.213" y2="201.557" gradientUnits="userSpaceOnUse"/><linearGradient xlink:href="#e" id="k" x1="29.651" y1="207.428" x2="93.415" y2="207.428" gradientUnits="userSpaceOnUse"/><linearGradient xlink:href="#e" id="j" x1="96.006" y1="220.271" x2="96.006" y2="205.908" gradientUnits="userSpaceOnUse"/></defs><g font-weight="400" letter-spacing="0" word-spacing="0"><text style="line-height:1.25;-inkscape-font-specification:Adrift" x="58.208" y="203.262" font-size="10.583" font-family="Adrift" stroke-width=".265" transform="translate(0 -390.534)"/><g font-size="129.46" font-family="Dima Fantasy2"><path d="M239.25 177.273a18.807 18.807 0 011.97-5.906c.984-1.97 2.241-3.664 3.773-5.086 8.457-7.289 20.492-7.63 28.691-4.357 4.574 2.588 6.694 6.79 2.026 10.385-20.502-3.57-36.46 21.175-36.46 4.964z" style="line-height:1.25;-inkscape-font-specification:'Dima Fantasy2'" fill="url(#f)" transform="translate(-26.727 -155.123)"/><path d="M236.213 207.707c0 1.985-.345 3.841-1.036 5.567a13.697 13.697 0 01-2.977 4.402c-1.208 1.294-2.676 2.33-4.402 3.107-1.726.69-3.625 1.036-5.696 1.036-1.467 0-2.934-.26-4.402-.777-1.467-.518-2.675-1.252-3.625-2.201-2.502 1.985-5.35 2.978-8.544 2.978-2.675 0-5.394-.993-8.156-2.978-1.295.95-2.632 1.683-4.013 2.2-1.295.519-2.805.778-4.531.778h-5.308v-9.451h5.308c1.294 0 2.373-.432 3.236-1.295.863-.949 1.295-2.071 1.295-3.366V183.59c2.627-2.199 5.46-3.615 9.58-.092v27.187c.259.604.647 1.036 1.165 1.295.518.258.993.388 1.424.388 1.208-.259 2.244-.777 3.107-1.554.95-.776 1.424-1.812 1.424-3.107v-24.113c2.73-2.622 5.843-3.14 9.58-.225v24.338c0 .518-.043 1.036-.13 1.554 0 .518-.129.992-.388 1.424.863 1.122 1.856 1.683 2.978 1.683 1.295-.259 2.373-.777 3.236-1.554.864-.776 1.295-1.812 1.295-3.107l.267-24.113c2.683-2.501 5.628-3.488 9.313-.225z" style="line-height:1.25;-inkscape-font-specification:'Dima Fantasy2'" fill="url(#g)" transform="translate(-26.727 -155.123)"/><path d="M161.713 221.69a14.111 14.111 0 01-5.696-.907 141.73 141.73 0 01-4.92-2.072h-.13c-1.984 1.554-3.84 2.46-5.566 2.72-1.64.172-3.754.258-6.344.258v-9.968a2.356 2.356 0 001.036-.777c.345-.345.604-.69.777-1.036.172-.345.259-.777.259-1.294l.13-3.107v-4.532c0-2.761.56-5.35 1.682-7.767 1.122-2.503 2.59-4.66 4.402-6.473a20.125 20.125 0 016.602-4.402 19.092 19.092 0 017.897-1.683c2.848 0 5.567.561 8.156 1.683 2.59 1.036 4.833 2.503 6.732 4.402 1.899 1.812 3.41 3.97 4.531 6.473 1.122 2.416 1.683 5.006 1.683 7.767v4.532l.13 3.107c0 .517.086.949.259 1.294.172.345.388.69.647 1.036.259.345.647.604 1.165.777 2.297 2.93 2.856 6.158 0 9.968-2.59 0-4.747-.086-6.473-.259-1.64-.259-3.452-1.165-5.437-2.719h-.13c-1.553.69-3.236 1.381-5.049 2.072-1.726.69-3.581.992-5.566.906zm0-31.59a9.677 9.677 0 00-4.143.907 11.398 11.398 0 00-3.495 2.2 9.902 9.902 0 00-2.201 3.367c-.518 1.294-.777 2.718-.777 4.272 0 1.554.259 2.978.777 4.272a9.902 9.902 0 002.2 3.366c1.036.95 2.201 1.726 3.496 2.33a11.05 11.05 0 004.143.777c3.366 0 6.128-1.036 8.285-3.107 2.158-2.071 3.194-4.617 3.107-7.638 0-1.554-.259-2.978-.776-4.272a9.094 9.094 0 00-2.33-3.366 9.903 9.903 0 00-3.367-2.201 9.676 9.676 0 00-4.142-.906z" style="line-height:1.25;-inkscape-font-specification:'Dima Fantasy2'" fill="url(#h)" transform="translate(-26.727 -155.123)"/><path d="M132.768 174.177v33.53c0 1.295.432 2.417 1.295 3.366.95.863 2.028 1.295 3.236 1.295l1.758-.647c2.801 2.762 3.484 5.949 0 9.968l-1.758-.012c-1.985-.014-3.84-.204-5.566-.894a15.67 15.67 0 01-4.402-3.107 15.67 15.67 0 01-3.107-4.402c-.69-1.726-1.036-3.582-1.036-5.567v-23.95c.06-4.997-.514-7.402.872-8.477 1.766-1.37 5.073-1.073 8.708-1.103z" style="line-height:1.25;-inkscape-font-specification:'Dima Fantasy2'" fill="url(#i)" transform="translate(-26.727 -155.123)"/><path d="M117.106 207.707c0 1.985-.389 3.841-1.165 5.567a15.67 15.67 0 01-3.107 4.402 15.117 15.117 0 01-4.532 3.107c-1.64.69-3.409 1.036-5.307 1.036h-9.58v-9.451h9.58c1.208 0 2.2-.432 2.977-1.295.777-.949 1.165-2.071 1.165-3.366v-6.99c3.964-3.357 7.064-2.245 9.969-.131zm-13.982-22.137c0-1.64.561-3.021 1.683-4.143 1.122-1.122 2.503-1.683 4.143-1.683 1.64 0 3.02.561 4.142 1.683 1.122 1.122 1.683 2.503 1.683 4.143 0 1.64-.56 3.02-1.683 4.142-1.122 1.122-2.502 1.683-4.142 1.683-1.64 0-3.021-.56-4.143-1.683-1.122-1.122-1.683-2.502-1.683-4.142z" style="line-height:1.25;-inkscape-font-specification:'Dima Fantasy2'" fill="url(#j)" transform="translate(-26.727 -155.123)"/><path d="M52.954 201.493c0 3.021 1.036 5.61 3.107 7.768 2.072 2.071 4.618 3.107 7.638 3.107 3.021 0 5.567-1.036 7.639-3.107 2.157-2.158 3.236-4.747 3.236-7.768 0-3.02-1.079-5.566-3.236-7.638-2.072-2.071-4.618-3.107-7.639-3.107-3.02 0-5.566 1.036-7.638 3.107-2.071 2.072-3.107 4.618-3.107 7.638zm-23.303-6.473c0-1.898.389-3.71 1.166-5.437a15.117 15.117 0 013.107-4.531 14.8 14.8 0 014.66-2.978 14.312 14.312 0 015.696-1.165h19.808c4.315 0 7.854.95 10.615 2.848 2.762 1.899 4.92 4.143 6.474 6.732 1.64 2.503 2.589 5.308 2.848 8.415.69 3.366 1.812 6.344 3.366 8.933 1.553 2.589 3.348 4.53 6.024 4.53 2.865 2.166 2.836 5.326 0 9.452-3.712 0-6.5-.69-9.002-1.813-2.503-1.122-4.488-2.675-5.955-4.66a20.863 20.863 0 01-6.603 4.66c-2.416 1.122-5.005 1.683-7.767 1.683-2.935 0-5.653-.518-8.156-1.553-2.503-1.122-4.704-2.59-6.603-4.402-1.812-1.899-3.28-4.1-4.401-6.603-1.036-2.502-1.554-5.178-1.554-8.026 0-1.813.216-3.668.647-5.567.518-1.899 1.295-3.582 2.33-5.049h-2.07c-1.209 0-2.288.432-3.237 1.295-.863.863-1.295 1.942-1.295 3.236v36.25c-3.55 3.675-6.904 3.46-10.098.01z" style="line-height:1.25;-inkscape-font-specification:'Dima Fantasy2'" fill="url(#k)" transform="translate(-26.727 -155.123)"/><path style="line-height:1.25;-inkscape-font-specification:'Dima Fantasy2'" d="M254.736 219.728v-37.932c2.962-2.885 6.073-3.299 9.39-.13l.056 37.97c-3.793 3.467-6.711 2.269-9.446.092z" fill="url(#l)" transform="translate(-26.727 -155.123)"/><path style="line-height:1.25;-inkscape-font-specification:'Dima Fantasy2'" d="M64.088 180.91c-12.135.386-14.958 5.988-17.736 9.579-1.036 1.467-1.813 3.15-2.33 5.05a25.074 25.074 0 00-.648 5.566c0 2.848.518 5.523 1.554 8.026 1.122 2.503 2.589 4.704 4.401 6.603 1.9 1.812 4.1 3.28 6.603 4.402 2.503 1.035 5.221 1.553 8.156 1.553 7.096-4.478-.388-9.321-.388-9.321-3.021 0-5.567-1.036-7.639-3.107-2.071-2.158-3.107-4.747-3.107-7.767 0-3.021 1.036-5.567 3.107-7.639 1.048-1.047 2.217-1.83 3.508-2.347h-.001c-3.66-6.88 4.52-10.599 4.52-10.599zm.172 9.85zm1.089.097zm-5.222.448l-.087.027c.028-.01.058-.018.087-.027zm8.22.426zm1.775 1.068zm6.072 24.597zm-5.253 3.004zm-3.328.967z" fill="url(#m)" transform="translate(-26.727 -155.123)"/><path style="line-height:1.25;-inkscape-font-specification:'Dima Fantasy2'" d="M64.087 180.909s-8.179 3.719-4.52 10.598h.001c1.261-.505 2.638-.76 4.131-.76 3.021 0 5.567 1.037 7.639 3.108 2.157 2.071 3.236 4.618 3.236 7.638 0 3.021-1.079 5.61-3.236 7.768-2.072 2.071-4.618 3.107-7.639 3.107 0 0 7.485 4.842.388 9.32 2.762 0 5.352-.56 7.768-1.682a20.862 20.862 0 006.603-4.66s6.487-5.157 5.567-16.442c-.26-3.107-1.209-5.912-2.849-8.415-1.553-2.59-3.711-4.833-6.473-6.732s-6.3-2.848-10.616-2.848z" fill="url(#n)" transform="translate(-26.727 -155.123)"/><path style="line-height:1.25;-inkscape-font-specification:'Dima Fantasy2'" d="M263.233 159.942c-4.024-.037-8.218.71-12.104 2.452-.007.011-5.27 8.824 1.504 15.543l.001.001c3.649-2.01 7.898-4.12 12.568-5.218l-.031.007c-.001-.001 0-.002-.002-.003-6.402-6.908 1.85-12.5 1.864-12.51-1.24-.166-2.51-.26-3.8-.272zm3.919.29zm.792.118zm.888.16zm.894.19zm2.67.753c.174.06.349.117.52.18-.171-.063-.346-.12-.52-.18zm-.762 10.5a19.01 19.01 0 00.155.003c-.052 0-.104-.002-.155-.003zm.437.007zm-1.236.004zm2.09.027zm-3.085.021zm-.817.066c-.13.013-.259.029-.388.043.13-.014.258-.03.388-.043zm5.826.099zm-6.99.042l-.225.032.226-.032z" fill="url(#o)" transform="translate(-26.727 -155.123)"/><path style="line-height:1.25;-inkscape-font-specification:'Dima Fantasy2'" d="M263.233 159.942l-.196.002h.264l-.068-.002zm-.66.006a30.556 30.556 0 00-3.248.212 33.371 33.371 0 013.248-.212zm4.866.285zm-8.852.02l-.154.022.154-.021zm9.644.098zm-.269.001zm1.157.16zm.894.19zm.653.23zm.989.283c.155.047.312.094.465.144-.153-.05-.31-.097-.465-.144zm1.028.24c.174.058.35.117.52.178-.17-.061-.345-.12-.52-.178zm-21.21.786l-.06.025.06-.025zm-.067.029c-2.27.986-4.44 2.31-6.413 4.01-1.532 1.423-2.79 3.118-3.774 5.087a18.809 18.809 0 00-1.969 5.906c0 9.287 5.242 5.134 13.57.563-6.618-6.708-1.42-15.555-1.414-15.566zm20.227 9.682a19.01 19.01 0 00.15.003l-.15-.003zm.452.008zm.273.001zm-1.556.004zm.32 0zm1.787.025zm.304.003zm-3.085.02zm-.327.003c-.11.008-.219.015-.328.024.11-.009.218-.017.328-.024zm4.14.056zm-4.63.009c-.13.012-.26.028-.389.042.13-.014.259-.03.388-.042zm5.538.097zm.288.001zm-6.99.043c-.075.01-.15.02-.225.032.075-.012.15-.022.225-.032zm-.325.004l-.181.026.181-.026zm-.713.11l-.169.03.17-.03z" fill="url(#p)" transform="translate(-26.727 -155.123)"/><path d="M162.24 180.32c-12.135.386-14.957 5.988-17.736 9.579-1.036 1.467-1.812 3.15-2.33 5.05a25.074 25.074 0 00-.647 5.566c0 2.848.517 5.523 1.553 8.026 1.122 2.503 2.59 4.704 4.402 6.603 1.898 1.812 4.1 3.28 6.602 4.402 2.503 1.035 5.222 1.553 8.156 1.553 7.096-4.478-.388-9.321-.388-9.321-3.02 0-5.567-1.036-7.638-3.107-2.072-2.158-3.107-4.747-3.107-7.768 0-3.02 1.035-5.567 3.107-7.638 1.047-1.048 2.216-1.83 3.507-2.347v-.001c-3.66-6.88 4.519-10.598 4.519-10.598zm.173 9.85zm1.088.097zm-5.222.447l-.087.028.087-.028zm8.22.427zm1.776 1.068zm6.072 24.597zm-5.254 3.004zm-3.327.967z" style="line-height:1.25;-inkscape-font-specification:'Dima Fantasy2'" fill="url(#q)" transform="translate(-26.727 -155.123)"/><path d="M162.24 180.319s-8.18 3.718-4.52 10.598c1.262-.506 2.638-.76 4.132-.76 3.02 0 5.567 1.036 7.638 3.108 2.158 2.071 3.236 4.617 3.236 7.638 0 3.02-1.078 5.61-3.236 7.768-2.071 2.07-4.618 3.106-7.638 3.106 0 0 7.484 4.843.388 9.322 2.762 0 5.351-.561 7.768-1.683a20.862 20.862 0 006.602-4.661s6.487-5.156 5.567-16.441c-.259-3.107-1.209-5.913-2.848-8.415-1.554-2.59-3.712-4.834-6.473-6.732-2.762-1.9-6.3-2.848-10.616-2.848z" style="line-height:1.25;-inkscape-font-specification:'Dima Fantasy2'" fill="url(#r)" transform="translate(-26.727 -155.123)"/></g></g></svg>